<svg width="940" height="357" xmlns="http://www.w3.org/2000/svg" xmlns:xlink="http://www.w3.org/1999/xlink" overflow="hidden"><defs><clipPath id="clip0"><path d="M189 257 1129 257 1129 614 189 614Z" fill-rule="evenodd" clip-rule="evenodd"/></clipPath></defs><g clip-path="url(#clip0)" transform="translate(-189 -257)"><path d="M284.5 361C284.5 345.26 297.26 332.5 313 332.5 328.74 332.5 341.5 345.26 341.5 361 341.5 376.74 328.74 389.5 313 389.5 297.26 389.5 284.5 376.74 284.5 361Z" stroke="#000000" stroke-miterlimit="8" fill="#D9D9D9" fill-rule="evenodd"/><text font-family="Cambria Math,Cambria Math_MSFontService,sans-serif" font-weight="400" font-size="21" transform="translate(289.102 368)">𝑢<tspan font-size="15" x="12.1667" y="4">𝑡</tspan><tspan font-size="15" x="19.42" y="4">−</tspan><tspan font-size="15" x="30.7533" y="4">1</tspan></text><path d="M461.5 361C461.5 345.26 474.26 332.5 490 332.5 505.74 332.5 518.5 345.26 518.5 361 518.5 376.74 505.74 389.5 490 389.5 474.26 389.5 461.5 376.74 461.5 361Z" stroke="#000000" stroke-miterlimit="8" fill="#D9D9D9" fill-rule="evenodd"/><text font-family="Cambria Math,Cambria Math_MSFontService,sans-serif" font-weight="400" font-size="21" transform="translate(476.262 368)">𝑢<tspan font-size="15" x="12.1667" y="4">𝑡</tspan></text><path d="M638.5 361C638.5 345.26 651.26 332.5 667 332.5 682.74 332.5 695.5 345.26 695.5 361 695.5 376.74 682.74 389.5 667 389.5 651.26 389.5 638.5 376.74 638.5 361Z" stroke="#000000" stroke-miterlimit="8" fill="#D9D9D9" fill-rule="evenodd"/><text font-family="Cambria Math,Cambria Math_MSFontService,sans-serif" font-weight="400" font-size="21" transform="translate(643.089 368)">𝑢<tspan font-size="15" x="12.1666" y="4">𝑡</tspan><tspan font-size="15" x="19.42" y="4">+</tspan><tspan font-size="15" x="30.7533" y="4">1</tspan></text><path d="M364.5 435.5C364.5 420.036 377.26 407.5 393 407.5 408.74 407.5 421.5 420.036 421.5 435.5 421.5 450.964 408.74 463.5 393 463.5 377.26 463.5 364.5 450.964 364.5 435.5Z" stroke="#000000" stroke-miterlimit="8" fill="#D9D9D9" fill-rule="evenodd"/><text font-family="Cambria Math,Cambria Math_MSFontService,sans-serif" font-weight="400" font-size="21" transform="translate(370.08 442)">𝑧<tspan font-size="15" x="9.81332" y="5">𝑡</tspan><tspan font-size="15" x="17.0667" y="5">−</tspan><tspan font-size="15" x="28.4" y="5">1</tspan></text><path d="M541.5 435.5C541.5 420.036 554.26 407.5 570 407.5 585.74 407.5 598.5 420.036 598.5 435.5 598.5 450.964 585.74 463.5 570 463.5 554.26 463.5 541.5 450.964 541.5 435.5Z" stroke="#000000" stroke-miterlimit="8" fill="#D9D9D9" fill-rule="evenodd"/><text font-family="Cambria Math,Cambria Math_MSFontService,sans-serif" font-weight="400" font-size="21" transform="translate(557.24 442)">𝑧<tspan font-size="15" x="9.81329" y="5">𝑡</tspan></text><path d="M718.5 435.5C718.5 420.036 731.26 407.5 747 407.5 762.74 407.5 775.5 420.036 775.5 435.5 775.5 450.964 762.74 463.5 747 463.5 731.26 463.5 718.5 450.964 718.5 435.5Z" stroke="#000000" stroke-miterlimit="8" fill="#D9D9D9" fill-rule="evenodd"/><text font-family="Cambria Math,Cambria Math_MSFontService,sans-serif" font-weight="400" font-size="21" transform="translate(724.067 442)">𝑧<tspan font-size="15" x="9.81329" y="5">𝑡</tspan><tspan font-size="15" x="17.0667" y="5">+</tspan><tspan font-size="15" x="28.4" y="5">1</tspan></text><path d="M364.5 287C364.5 271.26 377.26 258.5 393 258.5 408.74 258.5 421.5 271.26 421.5 287 421.5 302.74 408.74 315.5 393 315.5 377.26 315.5 364.5 302.74 364.5 287Z" stroke="#000000" stroke-miterlimit="8" fill="#FFFFFF" fill-rule="evenodd"/><text font-family="Cambria Math,Cambria Math_MSFontService,sans-serif" font-weight="400" font-size="21" transform="translate(369.423 293)">𝑥<tspan font-size="15" x="11.1266" y="5">𝑡</tspan><tspan font-size="15" x="18.38" y="5">−</tspan><tspan font-size="15" x="29.7133" y="5">1</tspan></text><path d="M541.5 287C541.5 271.26 554.26 258.5 570 258.5 585.74 258.5 598.5 271.26 598.5 287 598.5 302.74 585.74 315.5 570 315.5 554.26 315.5 541.5 302.74 541.5 287Z" stroke="#000000" stroke-miterlimit="8" fill="#FFFFFF" fill-rule="evenodd"/><text font-family="Cambria Math,Cambria Math_MSFontService,sans-serif" font-weight="400" font-size="21" transform="translate(556.583 293)">𝑥<tspan font-size="15" x="11.1267" y="5">𝑡</tspan></text><path d="M718.5 287C718.5 271.26 731.26 258.5 747 258.5 762.74 258.5 775.5 271.26 775.5 287 775.5 302.74 762.74 315.5 747 315.5 731.26 315.5 718.5 302.74 718.5 287Z" stroke="#000000" stroke-miterlimit="8" fill="#FFFFFF" fill-rule="evenodd"/><text font-family="Cambria Math,Cambria Math_MSFontService,sans-serif" font-weight="400" font-size="21" transform="translate(723.411 293)">𝑥<tspan font-size="15" x="11.1267" y="5">𝑡</tspan><tspan font-size="15" x="18.38" y="5">+</tspan><tspan font-size="15" x="29.7134" y="5">1</tspan></text><path d="M0.654154-0.756362 35.325 29.2294 34.0167 30.7421-0.654154 0.756362ZM36.279 26.0881 39.7133 34.3468 31.0458 32.139Z" transform="matrix(1 0 0 -1 333 340.347)"/><path d="M421 285 534.634 285 534.634 287 421 287ZM533.301 282 541.301 286 533.301 290Z"/><path d="M598 285 711.634 285 711.634 287 598 287ZM710.301 282 718.301 286 710.301 290Z"/><path d="M775 285 888.634 285 888.634 287 775 287ZM887.301 282 895.301 286 887.301 290Z"/><path d="M247 285 357.57 285 357.57 287 247 287ZM356.236 282 364.236 286 356.236 290Z"/><path d="M0.654154-0.756362 35.325 29.2294 34.0167 30.7421-0.654154 0.756362ZM36.279 26.0881 39.7133 34.3468 31.0458 32.139Z" transform="matrix(1 0 0 -1 510 340.347)"/><path d="M0.654154-0.756362 35.325 29.2294 34.0167 30.7421-0.654154 0.756362ZM36.279 26.0881 39.7133 34.3468 31.0458 32.139Z" transform="matrix(1 0 0 -1 687 340.347)"/><path d="M393 315 393 400.51 391 400.51 391 315ZM396 399.177 392 407.177 388 399.177Z"/><path d="M570 315 570 400.51 568 400.51 568 315ZM573 399.177 569 407.177 565 399.177Z"/><path d="M747 315 747 400.51 745 400.51 745 315ZM750 399.177 746 407.177 742 399.177Z"/><text font-family="Cambria Math,Cambria Math_MSFontService,sans-serif" font-weight="400" font-size="32" transform="translate(200.127 297)">⋯</text><path d="M364.5 584.5C364.5 569.036 377.26 556.5 393 556.5 408.74 556.5 421.5 569.036 421.5 584.5 421.5 599.964 408.74 612.5 393 612.5 377.26 612.5 364.5 599.964 364.5 584.5Z" stroke="#000000" stroke-miterlimit="8" fill="#FFFFFF" fill-rule="evenodd"/><text font-family="Cambria Math,Cambria Math_MSFontService,sans-serif" font-weight="400" font-size="21" transform="translate(377.302 591)">𝑚<tspan font-size="15" x="17.8333" y="4">𝑖</tspan></text><path d="M391.455 555.182 391.033 469.672 393.033 469.662 393.455 555.172ZM388.04 471.02 392 463 396.039 470.98Z"/><path d="M718.5 584.5C718.5 569.036 731.26 556.5 747 556.5 762.74 556.5 775.5 569.036 775.5 584.5 775.5 599.964 762.74 612.5 747 612.5 731.26 612.5 718.5 599.964 718.5 584.5Z" stroke="#000000" stroke-miterlimit="8" fill="#FFFFFF" fill-rule="evenodd"/><text font-family="Cambria Math,Cambria Math_MSFontService,sans-serif" font-weight="400" font-size="21" transform="translate(728.874 591)">𝑚<tspan font-size="15" x="17.8333" y="4">𝑘</tspan></text><path d="M1-1.13898e-06 1.0001 85.5099-0.999903 85.5099-1 1.13898e-06ZM4.0001 84.1766 0.000104987 92.1766-3.9999 84.1766Z" transform="matrix(1 0 0 -1 569 555.177)"/><path d="M1-1.13898e-06 1.0001 85.5099-0.999903 85.5099-1 1.13898e-06ZM4.0001 84.1766 0.000104987 92.1766-3.9999 84.1766Z" transform="matrix(1 0 0 -1 746 555.177)"/><text font-family="Cambria Math,Cambria Math_MSFontService,sans-serif" font-weight="400" font-size="24" transform="translate(303.442 517)">𝑐<tspan font-size="18" x="10.4133" y="5">𝑡</tspan><tspan font-size="18" x="18.5467" y="5">−</tspan><tspan font-size="18" x="31.2133" y="5">1</tspan><tspan x="49.04" y="0">=</tspan><tspan x="73.7067" y="0">𝑖</tspan><tspan x="188.064" y="0">𝑐</tspan><tspan font-size="18" x="198.477" y="5">𝑡</tspan><tspan x="214.27" y="0">=</tspan><tspan x="238.937" y="0">𝑗</tspan><tspan x="351.326" y="0">𝑐</tspan><tspan font-size="18" x="361.739" y="5">𝑡</tspan><tspan font-size="18" x="369.873" y="5">+</tspan><tspan font-size="18" x="382.539" y="5">1</tspan><tspan x="400.366" y="0">=</tspan><tspan x="425.033" y="0">𝑘</tspan></text><path d="M541.5 584.5C541.5 569.036 554.26 556.5 570 556.5 585.74 556.5 598.5 569.036 598.5 584.5 598.5 599.964 585.74 612.5 570 612.5 554.26 612.5 541.5 599.964 541.5 584.5Z" stroke="#000000" stroke-miterlimit="8" fill="#FFFFFF" fill-rule="evenodd"/><text font-family="Cambria Math,Cambria Math_MSFontService,sans-serif" font-weight="400" font-size="21" transform="translate(553.87 590)">𝑚<tspan font-size="15" x="15.94" y="4">𝑗</tspan></text><path d="M895.5 287C895.5 271.26 908.26 258.5 924 258.5 939.74 258.5 952.5 271.26 952.5 287 952.5 302.74 939.74 315.5 924 315.5 908.26 315.5 895.5 302.74 895.5 287Z" stroke="#000000" stroke-miterlimit="8" fill="#FFFFFF" fill-rule="evenodd"/><text font-family="Cambria Math,Cambria Math_MSFontService,sans-serif" font-weight="400" font-size="21" transform="translate(900.404 293)">𝑥<tspan font-size="15" x="11.1266" y="5">𝑡</tspan><tspan font-size="15" x="18.38" y="5">+</tspan><tspan font-size="15" x="29.7133" y="5">2</tspan></text><path d="M952 285 1065.63 285 1065.63 287 952 287ZM1064.3 282 1072.3 286 1064.3 290Z"/><text font-family="Cambria Math,Cambria Math_MSFontService,sans-serif" font-weight="400" font-size="32" transform="translate(1082.03 297)">⋯</text><path d="M815.5 361C815.5 345.26 828.26 332.5 844 332.5 859.74 332.5 872.5 345.26 872.5 361 872.5 376.74 859.74 389.5 844 389.5 828.26 389.5 815.5 376.74 815.5 361Z" stroke="#000000" stroke-miterlimit="8" fill="#D9D9D9" fill-rule="evenodd"/><text font-family="Cambria Math,Cambria Math_MSFontService,sans-serif" font-weight="400" font-size="21" transform="translate(819.982 368)">𝑢<tspan font-size="15" x="12.1667" y="4">𝑡</tspan><tspan font-size="15" x="19.42" y="4">+</tspan><tspan font-size="15" x="30.7534" y="4">2</tspan></text><path d="M895.5 435.5C895.5 420.036 908.26 407.5 924 407.5 939.74 407.5 952.5 420.036 952.5 435.5 952.5 450.964 939.74 463.5 924 463.5 908.26 463.5 895.5 450.964 895.5 435.5Z" stroke="#000000" stroke-miterlimit="8" fill="#D9D9D9" fill-rule="evenodd"/><text font-family="Cambria Math,Cambria Math_MSFontService,sans-serif" font-weight="400" font-size="21" transform="translate(900.96 442)">𝑧<tspan font-size="15" x="9.81335" y="5">𝑡</tspan><tspan font-size="15" x="17.0667" y="5">+</tspan><tspan font-size="15" x="28.4" y="5">2</tspan></text><path d="M0.646479-0.762932 36.0939 29.2739 34.8009 30.7997-0.646479 0.762932ZM37.0161 26.1231 40.5336 34.3467 31.8443 32.2266Z" transform="matrix(1 0 0 -1 863 340.347)"/><path d="M0.999999-0.00109797 1.09389 85.5088-0.906112 85.511-0.999999 0.00109797ZM4.09242 84.1722 0.101207 92.1766-3.90757 84.181Z" transform="matrix(-1 -8.74228e-08 -8.74228e-08 1 923.101 315)"/><path d="M0.622382-0.782713 132.209 103.85 130.964 105.415-0.622382 0.782713ZM133.032 100.672 136.805 108.782 128.053 106.933Z" transform="matrix(1 0 0 -1 766 563.781)"/><text font-family="Cambria Math,Cambria Math_MSFontService,sans-serif" font-weight="400" font-size="24" transform="translate(871.023 517)">𝑐<tspan font-size="18" x="10.4133" y="5">𝑡</tspan><tspan font-size="18" x="18.5466" y="5">+</tspan><tspan font-size="18" x="31.2133" y="5">2</tspan><tspan x="49.04" y="0">=</tspan><tspan x="73.7067" y="0">𝑘</tspan></text></g></svg>