<svg width="763" height="376" xmlns="http://www.w3.org/2000/svg" xmlns:xlink="http://www.w3.org/1999/xlink" overflow="hidden"><defs><clipPath id="clip0"><path d="M259 247 1022 247 1022 623 259 623Z" fill-rule="evenodd" clip-rule="evenodd"/></clipPath></defs><g clip-path="url(#clip0)" transform="translate(-259 -247)"><path d="M421.5 261C421.5 254.097 427.097 248.5 434 248.5L841 248.5C847.903 248.5 853.5 254.097 853.5 261L853.5 311C853.5 317.903 847.903 323.5 841 323.5L434 323.5C427.097 323.5 421.5 317.903 421.5 311Z" stroke="#000000" stroke-miterlimit="8" fill="#A6A6A6" fill-rule="evenodd"/><path d="M601.5 559C601.5 552.097 607.097 546.5 614 546.5L664 546.5C670.904 546.5 676.5 552.097 676.5 559L676.5 609C676.5 615.904 670.904 621.5 664 621.5L614 621.5C607.097 621.5 601.5 615.904 601.5 609Z" stroke="#000000" stroke-miterlimit="8" fill="#A6A6A6" fill-rule="evenodd"/><path d="M353.5 360.5C353.5 345.036 366.26 332.5 382 332.5 397.74 332.5 410.5 345.036 410.5 360.5 410.5 375.964 397.74 388.5 382 388.5 366.26 388.5 353.5 375.964 353.5 360.5Z" stroke="#000000" stroke-miterlimit="8" fill="#D9D9D9" fill-rule="evenodd"/><text font-family="Cambria Math,Cambria Math_MSFontService,sans-serif" font-weight="400" font-size="21" transform="translate(358.269 367)">𝑢<tspan font-size="15" x="12.1667" y="5">𝑡</tspan><tspan font-size="15" x="19.42" y="5">−</tspan><tspan font-size="15" x="30.7533" y="5">1</tspan></text><path d="M530.5 360.5C530.5 345.036 543.26 332.5 559 332.5 574.74 332.5 587.5 345.036 587.5 360.5 587.5 375.964 574.74 388.5 559 388.5 543.26 388.5 530.5 375.964 530.5 360.5Z" stroke="#000000" stroke-miterlimit="8" fill="#D9D9D9" fill-rule="evenodd"/><text font-family="Cambria Math,Cambria Math_MSFontService,sans-serif" font-weight="400" font-size="21" transform="translate(545.43 367)">𝑢<tspan font-size="15" x="12.1667" y="5">𝑡</tspan></text><path d="M707.5 360.5C707.5 345.036 720.26 332.5 736 332.5 751.74 332.5 764.5 345.036 764.5 360.5 764.5 375.964 751.74 388.5 736 388.5 720.26 388.5 707.5 375.964 707.5 360.5Z" stroke="#000000" stroke-miterlimit="8" fill="#D9D9D9" fill-rule="evenodd"/><text font-family="Cambria Math,Cambria Math_MSFontService,sans-serif" font-weight="400" font-size="21" transform="translate(712.257 367)">𝑢<tspan font-size="15" x="12.1666" y="5">𝑡</tspan><tspan font-size="15" x="19.42" y="5">+</tspan><tspan font-size="15" x="30.7533" y="5">1</tspan></text><path d="M433.5 435C433.5 419.26 446.26 406.5 462 406.5 477.74 406.5 490.5 419.26 490.5 435 490.5 450.74 477.74 463.5 462 463.5 446.26 463.5 433.5 450.74 433.5 435Z" stroke="#000000" stroke-miterlimit="8" fill="#D9D9D9" fill-rule="evenodd"/><text font-family="Cambria Math,Cambria Math_MSFontService,sans-serif" font-weight="400" font-size="21" transform="translate(439.247 442)">𝑧<tspan font-size="15" x="9.81332" y="4">𝑡</tspan><tspan font-size="15" x="17.0667" y="4">−</tspan><tspan font-size="15" x="28.4" y="4">1</tspan></text><path d="M610.5 435C610.5 419.26 623.26 406.5 639 406.5 654.74 406.5 667.5 419.26 667.5 435 667.5 450.74 654.74 463.5 639 463.5 623.26 463.5 610.5 450.74 610.5 435Z" stroke="#000000" stroke-miterlimit="8" fill="#D9D9D9" fill-rule="evenodd"/><text font-family="Cambria Math,Cambria Math_MSFontService,sans-serif" font-weight="400" font-size="21" transform="translate(626.408 442)">𝑧<tspan font-size="15" x="9.81329" y="4">𝑡</tspan></text><path d="M787.5 435C787.5 419.26 800.26 406.5 816 406.5 831.74 406.5 844.5 419.26 844.5 435 844.5 450.74 831.74 463.5 816 463.5 800.26 463.5 787.5 450.74 787.5 435Z" stroke="#000000" stroke-miterlimit="8" fill="#D9D9D9" fill-rule="evenodd"/><text font-family="Cambria Math,Cambria Math_MSFontService,sans-serif" font-weight="400" font-size="21" transform="translate(793.235 442)">𝑧<tspan font-size="15" x="9.81329" y="4">𝑡</tspan><tspan font-size="15" x="17.0667" y="4">+</tspan><tspan font-size="15" x="28.4" y="4">1</tspan></text><path d="M433.5 286C433.5 270.26 446.26 257.5 462 257.5 477.74 257.5 490.5 270.26 490.5 286 490.5 301.74 477.74 314.5 462 314.5 446.26 314.5 433.5 301.74 433.5 286Z" stroke="#000000" stroke-miterlimit="8" fill="#FFFFFF" fill-rule="evenodd"/><text font-family="Cambria Math,Cambria Math_MSFontService,sans-serif" font-weight="400" font-size="21" transform="translate(438.591 293)">𝑥<tspan font-size="15" x="11.1266" y="4">𝑡</tspan><tspan font-size="15" x="18.38" y="4">−</tspan><tspan font-size="15" x="29.7133" y="4">1</tspan></text><path d="M610.5 286C610.5 270.26 623.26 257.5 639 257.5 654.74 257.5 667.5 270.26 667.5 286 667.5 301.74 654.74 314.5 639 314.5 623.26 314.5 610.5 301.74 610.5 286Z" stroke="#000000" stroke-miterlimit="8" fill="#FFFFFF" fill-rule="evenodd"/><text font-family="Cambria Math,Cambria Math_MSFontService,sans-serif" font-weight="400" font-size="21" transform="translate(625.751 293)">𝑥<tspan font-size="15" x="11.1267" y="4">𝑡</tspan></text><path d="M787.5 286C787.5 270.26 800.26 257.5 816 257.5 831.74 257.5 844.5 270.26 844.5 286 844.5 301.74 831.74 314.5 816 314.5 800.26 314.5 787.5 301.74 787.5 286Z" stroke="#000000" stroke-miterlimit="8" fill="#FFFFFF" fill-rule="evenodd"/><text font-family="Cambria Math,Cambria Math_MSFontService,sans-serif" font-weight="400" font-size="21" transform="translate(792.578 293)">𝑥<tspan font-size="15" x="11.1267" y="4">𝑡</tspan><tspan font-size="15" x="18.38" y="4">+</tspan><tspan font-size="15" x="29.7134" y="4">1</tspan></text><path d="M0.654154-0.756362 35.325 29.2294 34.0167 30.7421-0.654154 0.756362ZM36.279 26.0881 39.7133 34.3468 31.0458 32.139Z" transform="matrix(1 0 0 -1 402 340.347)"/><path d="M490 285 603.634 285 603.634 287 490 287ZM602.301 282 610.301 286 602.301 290Z"/><path d="M667 285 780.634 285 780.634 287 667 287ZM779.301 282 787.301 286 779.301 290Z"/><path d="M844 285 957.634 285 957.634 287 844 287ZM956.301 282 964.301 286 956.301 290Z"/><path d="M316 285 426.57 285 426.57 287 316 287ZM425.236 282 433.236 286 425.236 290Z"/><path d="M0.654154-0.756362 35.325 29.2294 34.0167 30.7421-0.654154 0.756362ZM36.279 26.0881 39.7133 34.3468 31.0458 32.139Z" transform="matrix(1 0 0 -1 579 340.347)"/><path d="M0.654154-0.756362 35.325 29.2294 34.0167 30.7421-0.654154 0.756362ZM36.279 26.0881 39.7133 34.3468 31.0458 32.139Z" transform="matrix(1 0 0 -1 756 340.347)"/><path d="M462 314 462 399.51 460 399.51 460 314ZM465 398.177 461 406.177 457 398.177Z"/><path d="M639 314 639 399.51 637 399.51 637 314ZM642 398.177 638 406.177 634 398.177Z"/><path d="M816 314 816 399.51 814 399.51 814 314ZM819 398.177 815 406.177 811 398.177Z"/><text font-family="Cambria Math,Cambria Math_MSFontService,sans-serif" font-weight="400" font-size="32" transform="translate(974.205 296)">⋯<tspan x="-704.911" y="0">⋯</tspan></text><path d="M610.5 584C610.5 568.26 623.26 555.5 639 555.5 654.74 555.5 667.5 568.26 667.5 584 667.5 599.74 654.74 612.5 639 612.5 623.26 612.5 610.5 599.74 610.5 584Z" stroke="#000000" stroke-miterlimit="8" fill="#FFFFFF" fill-rule="evenodd"/><text font-family="Cambria Math,Cambria Math_MSFontService,sans-serif" font-weight="400" font-size="21" transform="translate(626.284 591)">𝑚</text><path d="M618.284 563.564 486.598 458.93 487.842 457.364 619.528 561.999ZM485.775 462.109 482 454 490.752 455.845Z"/><path d="M0.6221-0.782938 132.308 103.851 131.064 105.417-0.6221 0.782938ZM133.131 100.673 136.906 108.782 128.154 106.936Z" transform="matrix(1 0 0 -1 659 562.781)"/><path d="M1-1.13898e-06 1.0001 85.5099-0.999903 85.5099-1 1.13898e-06ZM4.0001 84.1766 0.000104987 92.1766-3.9999 84.1766Z" transform="matrix(1 0 0 -1 638 555.177)"/></g></svg>